<svg width="289" height="110" viewBox="0 0 289 110" fill="none" xmlns="http://www.w3.org/2000/svg">
<g filter="url(#filter0_d_86_76)">
<path d="M71.8284 36.8287L69 34.0003L60.0003 43L62.8287 45.8284L71.8284 36.8287Z" fill="#CBB994"/>
<path d="M71.8284 56.1713L69 58.9997L60.0003 50L62.8287 47.1716L71.8284 56.1713Z" fill="#CBB994"/>
<path d="M60.0003 50L64.0003 50L64.0003 43L60.0003 43L60.0003 50Z" fill="#CBB994"/>
<path d="M64.829 29.8281L62.0006 26.9997L52.0003 37L54.8287 39.8284L64.829 29.8281Z" fill="#CBB994"/>
<path d="M52.0003 56L56.0003 56L56.0003 37L52.0003 37L52.0003 56Z" fill="#CBB994"/>
<path d="M54.8284 53.1713L52 55.9997L62.0003 66L64.8287 63.1716L54.8284 53.1713Z" fill="#CBB994"/>
</g>
<g filter="url(#filter1_d_86_76)">
<path d="M34.1716 29.8281L37 26.9997L47.0003 37L44.1719 39.8284L34.1716 29.8281Z" fill="#CBB994"/>
<path d="M27.1721 36.8287L30.0006 34.0003L39.0003 43L36.1719 45.8284L27.1721 36.8287Z" fill="#CBB994"/>
<path d="M27.1721 56.1713L30.0006 58.9997L39.0003 50L36.1719 47.1716L27.1721 56.1713Z" fill="#CBB994"/>
<path d="M39.0003 50L35.0003 50L35.0003 43L39.0003 43L39.0003 50Z" fill="#CBB994"/>
<path d="M47.0003 56L43.0003 56L43.0003 37L47.0003 37L47.0003 56Z" fill="#CBB994"/>
<path d="M44.1722 53.1713L47.0006 55.9997L37.0003 66L34.1719 63.1716L44.1722 53.1713Z" fill="#CBB994"/>
</g>
<g filter="url(#filter2_d_86_76)">
<path d="M92.2147 56.1294L95.0006 58.9997L61.0003 92L58.2144 89.1297L92.2147 56.1294Z" fill="#CBB994"/>
<path d="M61.0003 88V92H52.0003V88H61.0003Z" fill="#CBB994"/>
<path d="M56.0003 91L52.0003 91L52.0003 79L56.0003 79L56.0003 91Z" fill="#CBB994"/>
<path d="M54.7832 81.8732L52 79.0003L84.0003 48L86.7835 50.873L54.7832 81.8732Z" fill="#CBB994"/>
<path d="M84.0003 52V48H95.0003V52H84.0003Z" fill="#CBB994"/>
<path d="M95.0003 59H91.0003V50H95.0003V59Z" fill="#CBB994"/>
</g>
<g filter="url(#filter3_d_86_76)">
<path d="M6.7859 56.1294L4 58.9997L38.0003 92L40.7862 89.1297L6.7859 56.1294Z" fill="#CBB994"/>
<path d="M38.0003 88V92H47.0003V88H38.0003Z" fill="#CBB994"/>
<path d="M43.0003 91L47.0003 91L47.0003 79L43.0003 79L43.0003 91Z" fill="#CBB994"/>
<path d="M44.2174 81.8732L47.0005 79.0003L15.0003 48L12.2171 50.873L44.2174 81.8732Z" fill="#CBB994"/>
<path d="M15.0003 52L15.0003 48H4.00029L4.00029 52H15.0003Z" fill="#CBB994"/>
<path d="M4.00029 59H8.00029V50H4.00029L4.00029 59Z" fill="#CBB994"/>
</g>
<g filter="url(#filter4_d_86_76)">
<path d="M92.2147 35.8706L95.0006 33.0003L61.0003 4.76837e-07L58.2144 2.87032L92.2147 35.8706Z" fill="#CBB994"/>
<path d="M61.0003 4V0L52.0003 0V4L61.0003 4Z" fill="#CBB994"/>
<path d="M56.0003 1L52.0003 1L52.0003 13L56.0003 13L56.0003 1Z" fill="#CBB994"/>
<path d="M54.7832 10.1268L52 12.9997L84.0003 44L86.7835 41.127L54.7832 10.1268Z" fill="#CBB994"/>
<path d="M84.0003 40V44H95.0003V40H84.0003Z" fill="#CBB994"/>
<path d="M95.0003 33H91.0003V42H95.0003V33Z" fill="#CBB994"/>
</g>
<g filter="url(#filter5_d_86_76)">
<path d="M6.7859 35.8706L4 33.0003L38.0003 4.76837e-07L40.7862 2.87032L6.7859 35.8706Z" fill="#CBB994"/>
<path d="M38.0003 4V0L47.0003 0V4L38.0003 4Z" fill="#CBB994"/>
<path d="M43.0003 1L47.0003 1L47.0003 13L43.0003 13L43.0003 1Z" fill="#CBB994"/>
<path d="M44.2174 10.1268L47.0005 12.9997L15.0003 44L12.2171 41.127L44.2174 10.1268Z" fill="#CBB994"/>
<path d="M15.0003 40L15.0003 44H4.00029L4.00029 40H15.0003Z" fill="#CBB994"/>
<path d="M4.00029 33H8.00029V42H4.00029L4.00029 33Z" fill="#CBB994"/>
</g>
<g filter="url(#filter6_d_86_76)">
<mask id="path-37-outside-1_86_76" maskUnits="userSpaceOnUse" x="124" y="23" width="161" height="21" fill="black">
<rect fill="white" x="124" y="23" width="161" height="21"/>
<path d="M125.523 24.5391H130.07L134.875 36.2695H135.074L139.891 24.5391H144.473V42H140.852V30.6328H140.723L136.188 41.918H133.738L129.25 30.6094H129.098V42H125.523V24.5391ZM147.508 42V24.5391H159.273V27.5859H151.188V31.6875H158.652V34.6758H151.188V38.9531H159.297V42H147.508ZM161.535 27.5859V24.5391H175.867V27.5859H170.547V42H166.867V27.5859H161.535ZM181.258 42H177.297L183.332 24.5391H188.078L194.102 42H190.152L188.852 38.0156H182.547L181.258 42ZM183.484 35.1328H187.914L185.77 28.5234H185.629L183.484 35.1328ZM196.188 42V24.5391H199.867V38.9531H207.355V42H196.188ZM215.406 42V24.5391H222.273C223.602 24.5391 224.73 24.793 225.66 25.3008C226.598 25.8086 227.312 26.5078 227.805 27.3984C228.297 28.2891 228.543 29.3125 228.543 30.4688C228.543 31.625 228.293 32.6445 227.793 33.5273C227.293 34.4102 226.57 35.1016 225.625 35.6016C224.68 36.0938 223.535 36.3398 222.191 36.3398H219.086V42H215.406ZM219.086 33.3867H221.582C222.652 33.3867 223.445 33.1172 223.961 32.5781C224.484 32.0312 224.746 31.3281 224.746 30.4688C224.746 29.5938 224.484 28.8906 223.961 28.3594C223.438 27.8281 222.641 27.5625 221.57 27.5625H219.086V33.3867ZM230.945 42V24.5391H237.812C239.797 24.5391 241.336 25.0586 242.43 26.0977C243.531 27.1367 244.082 28.5195 244.082 30.2461C244.082 31.4414 243.816 32.4648 243.285 33.3164C242.754 34.1602 241.992 34.793 241 35.2148L244.703 42H240.625L237.32 35.8125H234.625V42H230.945ZM234.625 32.8477H237.121C239.23 32.8477 240.285 31.9805 240.285 30.2461C240.285 29.3789 240.023 28.7148 239.5 28.2539C238.977 27.793 238.18 27.5625 237.109 27.5625H234.625V32.8477ZM250.398 24.5391V42H246.719V24.5391H250.398ZM261.262 42.2344C259.707 42.2344 258.316 41.8828 257.09 41.1797C255.863 40.4766 254.895 39.457 254.184 38.1211C253.48 36.7852 253.129 35.1719 253.129 33.2812C253.129 31.375 253.484 29.7539 254.195 28.418C254.914 27.082 255.887 26.0625 257.113 25.3594C258.348 24.6562 259.73 24.3047 261.262 24.3047C262.613 24.3047 263.828 24.5547 264.906 25.0547C265.992 25.5547 266.879 26.2773 267.566 27.2227C268.254 28.168 268.676 29.3125 268.832 30.6562H265.105C264.965 29.6953 264.555 28.9414 263.875 28.3945C263.195 27.8398 262.352 27.5625 261.344 27.5625C260 27.5625 258.918 28.0625 258.098 29.0625C257.277 30.0547 256.867 31.4609 256.867 33.2812C256.867 35.1406 257.277 36.5547 258.098 37.5234C258.926 38.4922 260.004 38.9766 261.332 38.9766C262.309 38.9766 263.137 38.7188 263.816 38.2031C264.504 37.6875 264.934 36.9648 265.105 36.0352H268.832C268.699 37.1055 268.316 38.1133 267.684 39.0586C267.059 40.0039 266.203 40.7695 265.117 41.3555C264.039 41.9414 262.754 42.2344 261.262 42.2344ZM271.492 42V24.5391H283.258V27.5859H275.172V31.6875H282.637V34.6758H275.172V38.9531H283.281V42H271.492Z"/>
</mask>
<path d="M125.523 24.5391H130.07L134.875 36.2695H135.074L139.891 24.5391H144.473V42H140.852V30.6328H140.723L136.188 41.918H133.738L129.25 30.6094H129.098V42H125.523V24.5391ZM147.508 42V24.5391H159.273V27.5859H151.188V31.6875H158.652V34.6758H151.188V38.9531H159.297V42H147.508ZM161.535 27.5859V24.5391H175.867V27.5859H170.547V42H166.867V27.5859H161.535ZM181.258 42H177.297L183.332 24.5391H188.078L194.102 42H190.152L188.852 38.0156H182.547L181.258 42ZM183.484 35.1328H187.914L185.77 28.5234H185.629L183.484 35.1328ZM196.188 42V24.5391H199.867V38.9531H207.355V42H196.188ZM215.406 42V24.5391H222.273C223.602 24.5391 224.73 24.793 225.66 25.3008C226.598 25.8086 227.312 26.5078 227.805 27.3984C228.297 28.2891 228.543 29.3125 228.543 30.4688C228.543 31.625 228.293 32.6445 227.793 33.5273C227.293 34.4102 226.57 35.1016 225.625 35.6016C224.68 36.0938 223.535 36.3398 222.191 36.3398H219.086V42H215.406ZM219.086 33.3867H221.582C222.652 33.3867 223.445 33.1172 223.961 32.5781C224.484 32.0312 224.746 31.3281 224.746 30.4688C224.746 29.5938 224.484 28.8906 223.961 28.3594C223.438 27.8281 222.641 27.5625 221.57 27.5625H219.086V33.3867ZM230.945 42V24.5391H237.812C239.797 24.5391 241.336 25.0586 242.43 26.0977C243.531 27.1367 244.082 28.5195 244.082 30.2461C244.082 31.4414 243.816 32.4648 243.285 33.3164C242.754 34.1602 241.992 34.793 241 35.2148L244.703 42H240.625L237.32 35.8125H234.625V42H230.945ZM234.625 32.8477H237.121C239.23 32.8477 240.285 31.9805 240.285 30.2461C240.285 29.3789 240.023 28.7148 239.5 28.2539C238.977 27.793 238.18 27.5625 237.109 27.5625H234.625V32.8477ZM250.398 24.5391V42H246.719V24.5391H250.398ZM261.262 42.2344C259.707 42.2344 258.316 41.8828 257.09 41.1797C255.863 40.4766 254.895 39.457 254.184 38.1211C253.48 36.7852 253.129 35.1719 253.129 33.2812C253.129 31.375 253.484 29.7539 254.195 28.418C254.914 27.082 255.887 26.0625 257.113 25.3594C258.348 24.6562 259.73 24.3047 261.262 24.3047C262.613 24.3047 263.828 24.5547 264.906 25.0547C265.992 25.5547 266.879 26.2773 267.566 27.2227C268.254 28.168 268.676 29.3125 268.832 30.6562H265.105C264.965 29.6953 264.555 28.9414 263.875 28.3945C263.195 27.8398 262.352 27.5625 261.344 27.5625C260 27.5625 258.918 28.0625 258.098 29.0625C257.277 30.0547 256.867 31.4609 256.867 33.2812C256.867 35.1406 257.277 36.5547 258.098 37.5234C258.926 38.4922 260.004 38.9766 261.332 38.9766C262.309 38.9766 263.137 38.7188 263.816 38.2031C264.504 37.6875 264.934 36.9648 265.105 36.0352H268.832C268.699 37.1055 268.316 38.1133 267.684 39.0586C267.059 40.0039 266.203 40.7695 265.117 41.3555C264.039 41.9414 262.754 42.2344 261.262 42.2344ZM271.492 42V24.5391H283.258V27.5859H275.172V31.6875H282.637V34.6758H275.172V38.9531H283.281V42H271.492Z" fill="#CBB994"/>
<path d="M125.523 24.5391V23.5391H124.523V24.5391H125.523ZM130.07 24.5391L130.996 24.16L130.741 23.5391H130.07V24.5391ZM134.875 36.2695L133.95 36.6486L134.204 37.2695H134.875V36.2695ZM135.074 36.2695V37.2695H135.745L135.999 36.6494L135.074 36.2695ZM139.891 24.5391V23.5391H139.22L138.966 24.1592L139.891 24.5391ZM144.473 24.5391H145.473V23.5391H144.473V24.5391ZM144.473 42V43H145.473V42H144.473ZM140.852 42H139.852V43H140.852V42ZM140.852 30.6328H141.852V29.6328H140.852V30.6328ZM140.723 30.6328V29.6328H140.047L139.795 30.2599L140.723 30.6328ZM136.188 41.918V42.918H136.863L137.115 42.2909L136.188 41.918ZM133.738 41.918L132.809 42.2869L133.059 42.918H133.738V41.918ZM129.25 30.6094L130.179 30.2405L129.929 29.6094H129.25V30.6094ZM129.098 30.6094V29.6094H128.098V30.6094H129.098ZM129.098 42V43H130.098V42H129.098ZM125.523 42H124.523V43H125.523V42ZM125.523 24.5391V25.5391H130.07V24.5391V23.5391H125.523V24.5391ZM130.07 24.5391L129.145 24.9181L133.95 36.6486L134.875 36.2695L135.8 35.8905L130.996 24.16L130.07 24.5391ZM134.875 36.2695V37.2695H135.074V36.2695V35.2695H134.875V36.2695ZM135.074 36.2695L135.999 36.6494L140.816 24.9189L139.891 24.5391L138.966 24.1592L134.149 35.8897L135.074 36.2695ZM139.891 24.5391V25.5391H144.473V24.5391V23.5391H139.891V24.5391ZM144.473 24.5391H143.473V42H144.473H145.473V24.5391H144.473ZM144.473 42V41H140.852V42V43H144.473V42ZM140.852 42H141.852V30.6328H140.852H139.852V42H140.852ZM140.852 30.6328V29.6328H140.723V30.6328V31.6328H140.852V30.6328ZM140.723 30.6328L139.795 30.2599L135.26 41.5451L136.188 41.918L137.115 42.2909L141.651 31.0057L140.723 30.6328ZM136.188 41.918V40.918H133.738V41.918V42.918H136.188V41.918ZM133.738 41.918L134.668 41.5491L130.179 30.2405L129.25 30.6094L128.321 30.9783L132.809 42.2869L133.738 41.918ZM129.25 30.6094V29.6094H129.098V30.6094V31.6094H129.25V30.6094ZM129.098 30.6094H128.098V42H129.098H130.098V30.6094H129.098ZM129.098 42V41H125.523V42V43H129.098V42ZM125.523 42H126.523V24.5391H125.523H124.523V42H125.523ZM147.508 42H146.508V43H147.508V42ZM147.508 24.5391V23.5391H146.508V24.5391H147.508ZM159.273 24.5391H160.273V23.5391H159.273V24.5391ZM159.273 27.5859V28.5859H160.273V27.5859H159.273ZM151.188 27.5859V26.5859H150.188V27.5859H151.188ZM151.188 31.6875H150.188V32.6875H151.188V31.6875ZM158.652 31.6875H159.652V30.6875H158.652V31.6875ZM158.652 34.6758V35.6758H159.652V34.6758H158.652ZM151.188 34.6758V33.6758H150.188V34.6758H151.188ZM151.188 38.9531H150.188V39.9531H151.188V38.9531ZM159.297 38.9531H160.297V37.9531H159.297V38.9531ZM159.297 42V43H160.297V42H159.297ZM147.508 42H148.508V24.5391H147.508H146.508V42H147.508ZM147.508 24.5391V25.5391H159.273V24.5391V23.5391H147.508V24.5391ZM159.273 24.5391H158.273V27.5859H159.273H160.273V24.5391H159.273ZM159.273 27.5859V26.5859H151.188V27.5859V28.5859H159.273V27.5859ZM151.188 27.5859H150.188V31.6875H151.188H152.188V27.5859H151.188ZM151.188 31.6875V32.6875H158.652V31.6875V30.6875H151.188V31.6875ZM158.652 31.6875H157.652V34.6758H158.652H159.652V31.6875H158.652ZM158.652 34.6758V33.6758H151.188V34.6758V35.6758H158.652V34.6758ZM151.188 34.6758H150.188V38.9531H151.188H152.188V34.6758H151.188ZM151.188 38.9531V39.9531H159.297V38.9531V37.9531H151.188V38.9531ZM159.297 38.9531H158.297V42H159.297H160.297V38.9531H159.297ZM159.297 42V41H147.508V42V43H159.297V42ZM161.535 27.5859H160.535V28.5859H161.535V27.5859ZM161.535 24.5391V23.5391H160.535V24.5391H161.535ZM175.867 24.5391H176.867V23.5391H175.867V24.5391ZM175.867 27.5859V28.5859H176.867V27.5859H175.867ZM170.547 27.5859V26.5859H169.547V27.5859H170.547ZM170.547 42V43H171.547V42H170.547ZM166.867 42H165.867V43H166.867V42ZM166.867 27.5859H167.867V26.5859H166.867V27.5859ZM161.535 27.5859H162.535V24.5391H161.535H160.535V27.5859H161.535ZM161.535 24.5391V25.5391H175.867V24.5391V23.5391H161.535V24.5391ZM175.867 24.5391H174.867V27.5859H175.867H176.867V24.5391H175.867ZM175.867 27.5859V26.5859H170.547V27.5859V28.5859H175.867V27.5859ZM170.547 27.5859H169.547V42H170.547H171.547V27.5859H170.547ZM170.547 42V41H166.867V42V43H170.547V42ZM166.867 42H167.867V27.5859H166.867H165.867V42H166.867ZM166.867 27.5859V26.5859H161.535V27.5859V28.5859H166.867V27.5859ZM181.258 42V43H181.985L182.209 42.3078L181.258 42ZM177.297 42L176.352 41.6733L175.893 43H177.297V42ZM183.332 24.5391V23.5391H182.62L182.387 24.2124L183.332 24.5391ZM188.078 24.5391L189.023 24.213L188.791 23.5391H188.078V24.5391ZM194.102 42V43H195.504L195.047 41.6739L194.102 42ZM190.152 42L189.202 42.3104L189.427 43H190.152V42ZM188.852 38.0156L189.802 37.7053L189.577 37.0156H188.852V38.0156ZM182.547 38.0156V37.0156H181.819L181.595 37.7078L182.547 38.0156ZM183.484 35.1328L182.533 34.8242L182.109 36.1328H183.484V35.1328ZM187.914 35.1328V36.1328H189.29L188.865 34.8242L187.914 35.1328ZM185.77 28.5234L186.721 28.2148L186.496 27.5234H185.77V28.5234ZM185.629 28.5234V27.5234H184.902L184.678 28.2148L185.629 28.5234ZM181.258 42V41H177.297V42V43H181.258V42ZM177.297 42L178.242 42.3267L184.277 24.8657L183.332 24.5391L182.387 24.2124L176.352 41.6733L177.297 42ZM183.332 24.5391V25.5391H188.078V24.5391V23.5391H183.332V24.5391ZM188.078 24.5391L187.133 24.8652L193.156 42.3261L194.102 42L195.047 41.6739L189.023 24.213L188.078 24.5391ZM194.102 42V41H190.152V42V43H194.102V42ZM190.152 42L191.103 41.6896L189.802 37.7053L188.852 38.0156L187.901 38.326L189.202 42.3104L190.152 42ZM188.852 38.0156V37.0156H182.547V38.0156V39.0156H188.852V38.0156ZM182.547 38.0156L181.595 37.7078L180.306 41.6922L181.258 42L182.209 42.3078L183.498 38.3234L182.547 38.0156ZM183.484 35.1328V36.1328H187.914V35.1328V34.1328H183.484V35.1328ZM187.914 35.1328L188.865 34.8242L186.721 28.2148L185.77 28.5234L184.818 28.8321L186.963 35.4414L187.914 35.1328ZM185.77 28.5234V27.5234H185.629V28.5234V29.5234H185.77V28.5234ZM185.629 28.5234L184.678 28.2148L182.533 34.8242L183.484 35.1328L184.436 35.4414L186.58 28.8321L185.629 28.5234ZM196.188 42H195.188V43H196.188V42ZM196.188 24.5391V23.5391H195.188V24.5391H196.188ZM199.867 24.5391H200.867V23.5391H199.867V24.5391ZM199.867 38.9531H198.867V39.9531H199.867V38.9531ZM207.355 38.9531H208.355V37.9531H207.355V38.9531ZM207.355 42V43H208.355V42H207.355ZM196.188 42H197.188V24.5391H196.188H195.188V42H196.188ZM196.188 24.5391V25.5391H199.867V24.5391V23.5391H196.188V24.5391ZM199.867 24.5391H198.867V38.9531H199.867H200.867V24.5391H199.867ZM199.867 38.9531V39.9531H207.355V38.9531V37.9531H199.867V38.9531ZM207.355 38.9531H206.355V42H207.355H208.355V38.9531H207.355ZM207.355 42V41H196.188V42V43H207.355V42ZM215.406 42H214.406V43H215.406V42ZM215.406 24.5391V23.5391H214.406V24.5391H215.406ZM225.66 25.3008L225.181 26.1784L225.184 26.1801L225.66 25.3008ZM225.625 35.6016L226.087 36.4886L226.093 36.4855L225.625 35.6016ZM219.086 36.3398V35.3398H218.086V36.3398H219.086ZM219.086 42V43H220.086V42H219.086ZM219.086 33.3867H218.086V34.3867H219.086V33.3867ZM223.961 32.5781L223.239 31.8867L223.238 31.8869L223.961 32.5781ZM219.086 27.5625V26.5625H218.086V27.5625H219.086ZM215.406 42H216.406V24.5391H215.406H214.406V42H215.406ZM215.406 24.5391V25.5391H222.273V24.5391V23.5391H215.406V24.5391ZM222.273 24.5391V25.5391C223.476 25.5391 224.431 25.7688 225.181 26.1784L225.66 25.3008L226.14 24.4232C225.03 23.8172 223.727 23.5391 222.273 23.5391V24.5391ZM225.66 25.3008L225.184 26.1801C225.962 26.6014 226.534 27.167 226.929 27.8821L227.805 27.3984L228.68 26.9148C228.091 25.8486 227.234 25.0158 226.136 24.4215L225.66 25.3008ZM227.805 27.3984L226.929 27.8821C227.329 28.6055 227.543 29.4583 227.543 30.4688H228.543H229.543C229.543 29.1667 229.265 27.9727 228.68 26.9148L227.805 27.3984ZM228.543 30.4688H227.543C227.543 31.4768 227.326 32.322 226.923 33.0345L227.793 33.5273L228.663 34.0202C229.26 32.9671 229.543 31.7732 229.543 30.4688H228.543ZM227.793 33.5273L226.923 33.0345C226.522 33.742 225.944 34.3018 225.157 34.7176L225.625 35.6016L226.093 36.4855C227.197 35.9013 228.064 35.0783 228.663 34.0202L227.793 33.5273ZM225.625 35.6016L225.163 34.7146C224.393 35.1157 223.415 35.3398 222.191 35.3398V36.3398V37.3398C223.655 37.3398 224.967 37.0718 226.087 36.4885L225.625 35.6016ZM222.191 36.3398V35.3398H219.086V36.3398V37.3398H222.191V36.3398ZM219.086 36.3398H218.086V42H219.086H220.086V36.3398H219.086ZM219.086 42V41H215.406V42V43H219.086V42ZM219.086 33.3867V34.3867H221.582V33.3867V32.3867H219.086V33.3867ZM221.582 33.3867V34.3867C222.805 34.3867 223.91 34.0782 224.684 33.2693L223.961 32.5781L223.238 31.8869C222.981 32.1561 222.5 32.3867 221.582 32.3867V33.3867ZM223.961 32.5781L224.683 33.2696C225.409 32.511 225.746 31.5481 225.746 30.4688H224.746H223.746C223.746 31.1082 223.559 31.5515 223.239 31.8867L223.961 32.5781ZM224.746 30.4688H225.746C225.746 29.38 225.413 28.4081 224.673 27.6575L223.961 28.3594L223.249 29.0612C223.556 29.3732 223.746 29.8075 223.746 30.4688H224.746ZM223.961 28.3594L224.673 27.6575C223.893 26.8656 222.791 26.5625 221.57 26.5625V27.5625V28.5625C222.49 28.5625 222.982 28.7907 223.249 29.0612L223.961 28.3594ZM221.57 27.5625V26.5625H219.086V27.5625V28.5625H221.57V27.5625ZM219.086 27.5625H218.086V33.3867H219.086H220.086V27.5625H219.086ZM230.945 42H229.945V43H230.945V42ZM230.945 24.5391V23.5391H229.945V24.5391H230.945ZM242.43 26.0977L241.741 26.8227L241.744 26.8251L242.43 26.0977ZM243.285 33.3164L244.131 33.8492L244.134 33.8457L243.285 33.3164ZM241 35.2148L240.609 34.2946L239.594 34.726L240.122 35.6939L241 35.2148ZM244.703 42V43H246.388L245.581 41.5209L244.703 42ZM240.625 42L239.743 42.4711L240.025 43H240.625V42ZM237.32 35.8125L238.202 35.3414L237.92 34.8125H237.32V35.8125ZM234.625 35.8125V34.8125H233.625V35.8125H234.625ZM234.625 42V43H235.625V42H234.625ZM234.625 32.8477H233.625V33.8477H234.625V32.8477ZM234.625 27.5625V26.5625H233.625V27.5625H234.625ZM230.945 42H231.945V24.5391H230.945H229.945V42H230.945ZM230.945 24.5391V25.5391H237.812V24.5391V23.5391H230.945V24.5391ZM237.812 24.5391V25.5391C239.624 25.5391 240.886 26.0102 241.741 26.8227L242.43 26.0977L243.118 25.3727C241.786 24.107 239.97 23.5391 237.812 23.5391V24.5391ZM242.43 26.0977L241.744 26.8251C242.616 27.648 243.082 28.7525 243.082 30.2461H244.082H245.082C245.082 28.2865 244.447 26.6254 243.116 25.3702L242.43 26.0977ZM244.082 30.2461H243.082C243.082 31.2904 242.851 32.1224 242.437 32.7871L243.285 33.3164L244.134 33.8457C244.781 32.8073 245.082 31.5924 245.082 30.2461H244.082ZM243.285 33.3164L242.439 32.7836C242.025 33.4407 241.429 33.9456 240.609 34.2946L241 35.2148L241.391 36.1351C242.555 35.6403 243.483 34.8797 244.131 33.8492L243.285 33.3164ZM241 35.2148L240.122 35.6939L243.825 42.4791L244.703 42L245.581 41.5209L241.878 34.7358L241 35.2148ZM244.703 42V41H240.625V42V43H244.703V42ZM240.625 42L241.507 41.5289L238.202 35.3414L237.32 35.8125L236.438 36.2836L239.743 42.4711L240.625 42ZM237.32 35.8125V34.8125H234.625V35.8125V36.8125H237.32V35.8125ZM234.625 35.8125H233.625V42H234.625H235.625V35.8125H234.625ZM234.625 42V41H230.945V42V43H234.625V42ZM234.625 32.8477V33.8477H237.121V32.8477V31.8477H234.625V32.8477ZM237.121 32.8477V33.8477C238.288 33.8477 239.348 33.6119 240.129 32.9697C240.948 32.2967 241.285 31.3247 241.285 30.2461H240.285H239.285C239.285 30.9019 239.095 31.2306 238.859 31.4248C238.585 31.6498 238.064 31.8477 237.121 31.8477V32.8477ZM240.285 30.2461H241.285C241.285 29.1672 240.951 28.199 240.161 27.5034L239.5 28.2539L238.839 29.0044C239.096 29.2307 239.285 29.5907 239.285 30.2461H240.285ZM239.5 28.2539L240.161 27.5034C239.379 26.8148 238.298 26.5625 237.109 26.5625V27.5625V28.5625C238.061 28.5625 238.574 28.7712 238.839 29.0044L239.5 28.2539ZM237.109 27.5625V26.5625H234.625V27.5625V28.5625H237.109V27.5625ZM234.625 27.5625H233.625V32.8477H234.625H235.625V27.5625H234.625ZM250.398 24.5391H251.398V23.5391H250.398V24.5391ZM250.398 42V43H251.398V42H250.398ZM246.719 42H245.719V43H246.719V42ZM246.719 24.5391V23.5391H245.719V24.5391H246.719ZM250.398 24.5391H249.398V42H250.398H251.398V24.5391H250.398ZM250.398 42V41H246.719V42V43H250.398V42ZM246.719 42H247.719V24.5391H246.719H245.719V42H246.719ZM246.719 24.5391V25.5391H250.398V24.5391V23.5391H246.719V24.5391ZM254.184 38.1211L253.299 38.5868L253.301 38.5909L254.184 38.1211ZM254.195 28.418L253.315 27.9442L253.313 27.9482L254.195 28.418ZM257.113 25.3594L256.618 24.4905L256.616 24.4918L257.113 25.3594ZM264.906 25.0547L264.486 25.9619L264.488 25.963L264.906 25.0547ZM268.832 30.6562V31.6562H269.955L269.825 30.5407L268.832 30.6562ZM265.105 30.6562L264.116 30.801L264.241 31.6562H265.105V30.6562ZM263.875 28.3945L263.243 29.1693L263.248 29.1736L263.875 28.3945ZM258.098 29.0625L258.868 29.6997L258.871 29.6967L258.098 29.0625ZM258.098 37.5234L257.334 38.1697L257.338 38.1732L258.098 37.5234ZM263.816 38.2031L263.216 37.4031L263.212 37.4064L263.816 38.2031ZM265.105 36.0352V35.0352H264.273L264.122 35.8534L265.105 36.0352ZM268.832 36.0352L269.824 36.1583L269.964 35.0352H268.832V36.0352ZM267.684 39.0586L266.853 38.5023L266.849 38.5071L267.684 39.0586ZM265.117 41.3555L264.642 40.4754L264.64 40.4768L265.117 41.3555ZM261.262 42.2344V41.2344C259.864 41.2344 258.648 40.92 257.587 40.3121L257.09 41.1797L256.593 42.0472C257.985 42.8456 259.55 43.2344 261.262 43.2344V42.2344ZM257.09 41.1797L257.587 40.3121C256.536 39.7093 255.695 38.8332 255.066 37.6513L254.184 38.1211L253.301 38.5909C254.094 40.0808 255.191 41.2438 256.593 42.0472L257.09 41.1797ZM254.184 38.1211L255.069 37.6553C254.458 36.4948 254.129 35.0497 254.129 33.2812H253.129H252.129C252.129 35.294 252.503 37.0755 253.299 38.5868L254.184 38.1211ZM253.129 33.2812H254.129C254.129 31.4972 254.462 30.0463 255.078 28.8878L254.195 28.418L253.313 27.9482C252.507 29.4615 252.129 31.2528 252.129 33.2812H253.129ZM254.195 28.418L255.076 28.8918C255.713 27.7078 256.558 26.8304 257.611 26.2269L257.113 25.3594L256.616 24.4918C255.215 25.2946 254.115 26.4563 253.315 27.9442L254.195 28.418ZM257.113 25.3594L257.608 26.2283C258.68 25.6177 259.89 25.3047 261.262 25.3047V24.3047V23.3047C259.571 23.3047 258.015 23.6948 256.618 24.4905L257.113 25.3594ZM261.262 24.3047V25.3047C262.488 25.3047 263.556 25.5309 264.486 25.9619L264.906 25.0547L265.327 24.1475C264.1 23.5785 262.739 23.3047 261.262 23.3047V24.3047ZM264.906 25.0547L264.488 25.963C265.422 26.3932 266.173 27.0071 266.758 27.8108L267.566 27.2227L268.375 26.6345C267.585 25.5475 266.562 24.7162 265.324 24.1463L264.906 25.0547ZM267.566 27.2227L266.758 27.8108C267.329 28.5965 267.699 29.5717 267.839 30.7718L268.832 30.6562L269.825 30.5407C269.652 29.0533 269.179 27.7394 268.375 26.6345L267.566 27.2227ZM268.832 30.6562V29.6562H265.105V30.6562V31.6562H268.832V30.6562ZM265.105 30.6562L266.095 30.5115C265.922 29.3315 265.401 28.3388 264.502 27.6154L263.875 28.3945L263.248 29.1736C263.708 29.544 264.007 30.0591 264.116 30.801L265.105 30.6562ZM263.875 28.3945L264.507 27.6198C263.623 26.8981 262.546 26.5625 261.344 26.5625V27.5625V28.5625C262.157 28.5625 262.768 28.7816 263.243 29.1693L263.875 28.3945ZM261.344 27.5625V26.5625C259.714 26.5625 258.343 27.1865 257.325 28.4283L258.098 29.0625L258.871 29.6967C259.493 28.9385 260.286 28.5625 261.344 28.5625V27.5625ZM258.098 29.0625L257.327 28.4253C256.308 29.6583 255.867 31.3231 255.867 33.2812H256.867H257.867C257.867 31.5988 258.247 30.4511 258.868 29.6997L258.098 29.0625ZM256.867 33.2812H255.867C255.867 35.2701 256.304 36.9526 257.335 38.1697L258.098 37.5234L258.861 36.8772C258.251 36.1567 257.867 35.0111 257.867 33.2812H256.867ZM258.098 37.5234L257.338 38.1732C258.365 39.3747 259.726 39.9766 261.332 39.9766V38.9766V37.9766C260.282 37.9766 259.487 37.6097 258.858 36.8737L258.098 37.5234ZM261.332 38.9766V39.9766C262.494 39.9766 263.543 39.666 264.421 38.9998L263.816 38.2031L263.212 37.4064C262.731 37.7715 262.123 37.9766 261.332 37.9766V38.9766ZM263.816 38.2031L264.416 39.0031C265.326 38.3213 265.876 37.3667 266.089 36.2169L265.105 36.0352L264.122 35.8534C263.991 36.563 263.682 37.0537 263.216 37.4031L263.816 38.2031ZM265.105 36.0352V37.0352H268.832V36.0352V35.0352H265.105V36.0352ZM268.832 36.0352L267.84 35.912C267.727 36.8188 267.403 37.6795 266.853 38.5023L267.684 39.0586L268.515 39.6149C269.229 38.5471 269.671 37.3921 269.824 36.1583L268.832 36.0352ZM267.684 39.0586L266.849 38.5071C266.323 39.303 265.596 39.9606 264.642 40.4754L265.117 41.3555L265.592 42.2355C266.81 41.5785 267.794 40.7048 268.518 39.6101L267.684 39.0586ZM265.117 41.3555L264.64 40.4768C263.737 40.9676 262.623 41.2344 261.262 41.2344V42.2344V43.2344C262.885 43.2344 264.342 42.9152 265.595 42.2341L265.117 41.3555ZM271.492 42H270.492V43H271.492V42ZM271.492 24.5391V23.5391H270.492V24.5391H271.492ZM283.258 24.5391H284.258V23.5391H283.258V24.5391ZM283.258 27.5859V28.5859H284.258V27.5859H283.258ZM275.172 27.5859V26.5859H274.172V27.5859H275.172ZM275.172 31.6875H274.172V32.6875H275.172V31.6875ZM282.637 31.6875H283.637V30.6875H282.637V31.6875ZM282.637 34.6758V35.6758H283.637V34.6758H282.637ZM275.172 34.6758V33.6758H274.172V34.6758H275.172ZM275.172 38.9531H274.172V39.9531H275.172V38.9531ZM283.281 38.9531H284.281V37.9531H283.281V38.9531ZM283.281 42V43H284.281V42H283.281ZM271.492 42H272.492V24.5391H271.492H270.492V42H271.492ZM271.492 24.5391V25.5391H283.258V24.5391V23.5391H271.492V24.5391ZM283.258 24.5391H282.258V27.5859H283.258H284.258V24.5391H283.258ZM283.258 27.5859V26.5859H275.172V27.5859V28.5859H283.258V27.5859ZM275.172 27.5859H274.172V31.6875H275.172H276.172V27.5859H275.172ZM275.172 31.6875V32.6875H282.637V31.6875V30.6875H275.172V31.6875ZM282.637 31.6875H281.637V34.6758H282.637H283.637V31.6875H282.637ZM282.637 34.6758V33.6758H275.172V34.6758V35.6758H282.637V34.6758ZM275.172 34.6758H274.172V38.9531H275.172H276.172V34.6758H275.172ZM275.172 38.9531V39.9531H283.281V38.9531V37.9531H275.172V38.9531ZM283.281 38.9531H282.281V42H283.281H284.281V38.9531H283.281ZM283.281 42V41H271.492V42V43H283.281V42Z" fill="#524B38" mask="url(#path-37-outside-1_86_76)"/>
</g>
<g filter="url(#filter7_d_86_76)">
<mask id="path-39-outside-2_86_76" maskUnits="userSpaceOnUse" x="166" y="55" width="81" height="21" fill="black">
<rect fill="white" x="166" y="55" width="81" height="21"/>
<path d="M167.094 74V56.5391H173.961C175.945 56.5391 177.484 57.0586 178.578 58.0977C179.68 59.1367 180.23 60.5195 180.23 62.2461C180.23 63.4414 179.965 64.4648 179.434 65.3164C178.902 66.1602 178.141 66.793 177.148 67.2148L180.852 74H176.773L173.469 67.8125H170.773V74H167.094ZM170.773 64.8477H173.27C175.379 64.8477 176.434 63.9805 176.434 62.2461C176.434 61.3789 176.172 60.7148 175.648 60.2539C175.125 59.793 174.328 59.5625 173.258 59.5625H170.773V64.8477ZM186.547 56.5391V74H182.867V56.5391H186.547ZM196.062 74.2461C193.945 74.2461 192.254 73.7617 190.988 72.793C189.73 71.8242 189.074 70.3984 189.02 68.5156H192.594C192.656 69.3906 193 70.0508 193.625 70.4961C194.258 70.9336 195.055 71.1523 196.016 71.1523C196.953 71.1523 197.703 70.9531 198.266 70.5547C198.836 70.1562 199.121 69.6367 199.121 68.9961C199.121 68.4102 198.863 67.9609 198.348 67.6484C197.832 67.3281 197.098 67.0547 196.145 66.8281L194.234 66.3594C192.766 66.0078 191.605 65.4492 190.754 64.6836C189.91 63.9102 189.488 62.8789 189.488 61.5898C189.488 60.5352 189.773 59.6133 190.344 58.8242C190.914 58.0273 191.695 57.4102 192.688 56.9727C193.688 56.5273 194.824 56.3047 196.098 56.3047C197.395 56.3047 198.527 56.5273 199.496 56.9727C200.465 57.418 201.219 58.0352 201.758 58.8242C202.305 59.6133 202.586 60.5234 202.602 61.5547H199.039C198.977 60.875 198.688 60.3438 198.172 59.9609C197.656 59.5781 196.957 59.3867 196.074 59.3867C195.176 59.3867 194.484 59.5742 194 59.9492C193.516 60.3164 193.273 60.7852 193.273 61.3555C193.273 61.9727 193.543 62.4414 194.082 62.7617C194.621 63.0742 195.27 63.3203 196.027 63.5L197.586 63.8867C198.602 64.1133 199.504 64.4453 200.293 64.8828C201.082 65.3125 201.703 65.8672 202.156 66.5469C202.609 67.2188 202.836 68.0391 202.836 69.0078C202.836 70.6094 202.238 71.8828 201.043 72.8281C199.848 73.7734 198.188 74.2461 196.062 74.2461ZM209 56.5391V74H205.32V56.5391H209ZM226.648 56.5391V74H223.449L215.867 63.0195H215.727V74H212.047V56.5391H215.281L222.816 67.5195H222.969V56.5391H226.648ZM237.617 74.2344C235.984 74.2344 234.547 73.875 233.305 73.1562C232.07 72.4297 231.105 71.3984 230.41 70.0625C229.723 68.7188 229.379 67.1289 229.379 65.293C229.379 63.4023 229.738 61.7891 230.457 60.4531C231.176 59.1094 232.152 58.082 233.387 57.3711C234.621 56.6602 236.008 56.3047 237.547 56.3047C238.867 56.3047 240.059 56.5547 241.121 57.0547C242.191 57.5547 243.066 58.2461 243.746 59.1289C244.434 60.0117 244.855 61.0312 245.012 62.1875H241.273C241.031 61.3672 240.598 60.7266 239.973 60.2656C239.348 59.7969 238.559 59.5625 237.605 59.5625C236.27 59.5625 235.188 60.0586 234.359 61.0508C233.531 62.0352 233.117 63.4375 233.117 65.2578C233.117 67.0781 233.523 68.4883 234.336 69.4883C235.156 70.4805 236.262 70.9766 237.652 70.9766C238.871 70.9766 239.828 70.6602 240.523 70.0273C241.227 69.3867 241.59 68.5234 241.613 67.4375H237.875V64.6602H245.188V66.8633C245.188 68.3945 244.863 69.7109 244.215 70.8125C243.566 71.9141 242.672 72.7617 241.531 73.3555C240.391 73.9414 239.086 74.2344 237.617 74.2344Z"/>
</mask>
<path d="M167.094 74V56.5391H173.961C175.945 56.5391 177.484 57.0586 178.578 58.0977C179.68 59.1367 180.23 60.5195 180.23 62.2461C180.23 63.4414 179.965 64.4648 179.434 65.3164C178.902 66.1602 178.141 66.793 177.148 67.2148L180.852 74H176.773L173.469 67.8125H170.773V74H167.094ZM170.773 64.8477H173.27C175.379 64.8477 176.434 63.9805 176.434 62.2461C176.434 61.3789 176.172 60.7148 175.648 60.2539C175.125 59.793 174.328 59.5625 173.258 59.5625H170.773V64.8477ZM186.547 56.5391V74H182.867V56.5391H186.547ZM196.062 74.2461C193.945 74.2461 192.254 73.7617 190.988 72.793C189.73 71.8242 189.074 70.3984 189.02 68.5156H192.594C192.656 69.3906 193 70.0508 193.625 70.4961C194.258 70.9336 195.055 71.1523 196.016 71.1523C196.953 71.1523 197.703 70.9531 198.266 70.5547C198.836 70.1562 199.121 69.6367 199.121 68.9961C199.121 68.4102 198.863 67.9609 198.348 67.6484C197.832 67.3281 197.098 67.0547 196.145 66.8281L194.234 66.3594C192.766 66.0078 191.605 65.4492 190.754 64.6836C189.91 63.9102 189.488 62.8789 189.488 61.5898C189.488 60.5352 189.773 59.6133 190.344 58.8242C190.914 58.0273 191.695 57.4102 192.688 56.9727C193.688 56.5273 194.824 56.3047 196.098 56.3047C197.395 56.3047 198.527 56.5273 199.496 56.9727C200.465 57.418 201.219 58.0352 201.758 58.8242C202.305 59.6133 202.586 60.5234 202.602 61.5547H199.039C198.977 60.875 198.688 60.3438 198.172 59.9609C197.656 59.5781 196.957 59.3867 196.074 59.3867C195.176 59.3867 194.484 59.5742 194 59.9492C193.516 60.3164 193.273 60.7852 193.273 61.3555C193.273 61.9727 193.543 62.4414 194.082 62.7617C194.621 63.0742 195.27 63.3203 196.027 63.5L197.586 63.8867C198.602 64.1133 199.504 64.4453 200.293 64.8828C201.082 65.3125 201.703 65.8672 202.156 66.5469C202.609 67.2188 202.836 68.0391 202.836 69.0078C202.836 70.6094 202.238 71.8828 201.043 72.8281C199.848 73.7734 198.188 74.2461 196.062 74.2461ZM209 56.5391V74H205.32V56.5391H209ZM226.648 56.5391V74H223.449L215.867 63.0195H215.727V74H212.047V56.5391H215.281L222.816 67.5195H222.969V56.5391H226.648ZM237.617 74.2344C235.984 74.2344 234.547 73.875 233.305 73.1562C232.07 72.4297 231.105 71.3984 230.41 70.0625C229.723 68.7188 229.379 67.1289 229.379 65.293C229.379 63.4023 229.738 61.7891 230.457 60.4531C231.176 59.1094 232.152 58.082 233.387 57.3711C234.621 56.6602 236.008 56.3047 237.547 56.3047C238.867 56.3047 240.059 56.5547 241.121 57.0547C242.191 57.5547 243.066 58.2461 243.746 59.1289C244.434 60.0117 244.855 61.0312 245.012 62.1875H241.273C241.031 61.3672 240.598 60.7266 239.973 60.2656C239.348 59.7969 238.559 59.5625 237.605 59.5625C236.27 59.5625 235.188 60.0586 234.359 61.0508C233.531 62.0352 233.117 63.4375 233.117 65.2578C233.117 67.0781 233.523 68.4883 234.336 69.4883C235.156 70.4805 236.262 70.9766 237.652 70.9766C238.871 70.9766 239.828 70.6602 240.523 70.0273C241.227 69.3867 241.59 68.5234 241.613 67.4375H237.875V64.6602H245.188V66.8633C245.188 68.3945 244.863 69.7109 244.215 70.8125C243.566 71.9141 242.672 72.7617 241.531 73.3555C240.391 73.9414 239.086 74.2344 237.617 74.2344Z" fill="#CBB994"/>
<path d="M167.094 74H166.094V75H167.094V74ZM167.094 56.5391V55.5391H166.094V56.5391H167.094ZM178.578 58.0977L177.889 58.8227L177.892 58.8251L178.578 58.0977ZM179.434 65.3164L180.28 65.8492L180.282 65.8457L179.434 65.3164ZM177.148 67.2148L176.757 66.2946L175.742 66.726L176.271 67.6939L177.148 67.2148ZM180.852 74V75H182.537L181.729 73.5209L180.852 74ZM176.773 74L175.891 74.4711L176.174 75H176.773V74ZM173.469 67.8125L174.351 67.3414L174.068 66.8125H173.469V67.8125ZM170.773 67.8125V66.8125H169.773V67.8125H170.773ZM170.773 74V75H171.773V74H170.773ZM170.773 64.8477H169.773V65.8477H170.773V64.8477ZM170.773 59.5625V58.5625H169.773V59.5625H170.773ZM167.094 74H168.094V56.5391H167.094H166.094V74H167.094ZM167.094 56.5391V57.5391H173.961V56.5391V55.5391H167.094V56.5391ZM173.961 56.5391V57.5391C175.772 57.5391 177.034 58.0102 177.889 58.8227L178.578 58.0977L179.267 57.3727C177.935 56.107 176.118 55.5391 173.961 55.5391V56.5391ZM178.578 58.0977L177.892 58.8251C178.764 59.648 179.23 60.7525 179.23 62.2461H180.23H181.23C181.23 60.2865 180.595 58.6254 179.264 57.3702L178.578 58.0977ZM180.23 62.2461H179.23C179.23 63.2904 179 64.1224 178.585 64.7871L179.434 65.3164L180.282 65.8457C180.93 64.8073 181.23 63.5924 181.23 62.2461H180.23ZM179.434 65.3164L178.587 64.7836C178.174 65.4407 177.578 65.9456 176.757 66.2946L177.148 67.2148L177.54 68.1351C178.703 67.6403 179.631 66.8797 180.28 65.8492L179.434 65.3164ZM177.148 67.2148L176.271 67.6939L179.974 74.4791L180.852 74L181.729 73.5209L178.026 66.7358L177.148 67.2148ZM180.852 74V73H176.773V74V75H180.852V74ZM176.773 74L177.656 73.5289L174.351 67.3414L173.469 67.8125L172.587 68.2836L175.891 74.4711L176.773 74ZM173.469 67.8125V66.8125H170.773V67.8125V68.8125H173.469V67.8125ZM170.773 67.8125H169.773V74H170.773H171.773V67.8125H170.773ZM170.773 74V73H167.094V74V75H170.773V74ZM170.773 64.8477V65.8477H173.27V64.8477V63.8477H170.773V64.8477ZM173.27 64.8477V65.8477C174.436 65.8477 175.497 65.6119 176.278 64.9697C177.096 64.2967 177.434 63.3247 177.434 62.2461H176.434H175.434C175.434 62.9019 175.244 63.2306 175.007 63.4248C174.734 63.6498 174.212 63.8477 173.27 63.8477V64.8477ZM176.434 62.2461H177.434C177.434 61.1672 177.099 60.199 176.309 59.5034L175.648 60.2539L174.988 61.0044C175.245 61.2307 175.434 61.5907 175.434 62.2461H176.434ZM175.648 60.2539L176.309 59.5034C175.527 58.8148 174.446 58.5625 173.258 58.5625V59.5625V60.5625C174.21 60.5625 174.723 60.7712 174.988 61.0044L175.648 60.2539ZM173.258 59.5625V58.5625H170.773V59.5625V60.5625H173.258V59.5625ZM170.773 59.5625H169.773V64.8477H170.773H171.773V59.5625H170.773ZM186.547 56.5391H187.547V55.5391H186.547V56.5391ZM186.547 74V75H187.547V74H186.547ZM182.867 74H181.867V75H182.867V74ZM182.867 56.5391V55.5391H181.867V56.5391H182.867ZM186.547 56.5391H185.547V74H186.547H187.547V56.5391H186.547ZM186.547 74V73H182.867V74V75H186.547V74ZM182.867 74H183.867V56.5391H182.867H181.867V74H182.867ZM182.867 56.5391V57.5391H186.547V56.5391V55.5391H182.867V56.5391ZM190.988 72.793L190.378 73.5852L190.38 73.587L190.988 72.793ZM189.02 68.5156V67.5156H187.99L188.02 68.5447L189.02 68.5156ZM192.594 68.5156L193.591 68.4444L193.525 67.5156H192.594V68.5156ZM193.625 70.4961L193.045 71.3105L193.05 71.3146L193.056 71.3187L193.625 70.4961ZM198.266 70.5547L197.693 69.7349L197.688 69.7387L198.266 70.5547ZM198.348 67.6484L197.82 68.4979L197.829 68.5036L198.348 67.6484ZM196.145 66.8281L195.906 67.7993L195.913 67.801L196.145 66.8281ZM194.234 66.3594L194.473 65.3882L194.467 65.3868L194.234 66.3594ZM190.754 64.6836L190.078 65.4208L190.085 65.4272L190.754 64.6836ZM190.344 58.8242L191.154 59.41L191.157 59.4062L190.344 58.8242ZM192.688 56.9727L193.091 57.8877L193.094 57.8862L192.688 56.9727ZM201.758 58.8242L200.932 59.3883L200.936 59.3939L201.758 58.8242ZM202.602 61.5547V62.5547H203.617L203.601 61.5395L202.602 61.5547ZM199.039 61.5547L198.043 61.6463L198.127 62.5547H199.039V61.5547ZM194 59.9492L194.604 60.7462L194.612 60.7399L194 59.9492ZM194.082 62.7617L193.571 63.6215L193.58 63.6269L194.082 62.7617ZM196.027 63.5L196.268 62.5294L196.258 62.527L196.027 63.5ZM197.586 63.8867L197.345 64.8573L197.357 64.8601L197.368 64.8627L197.586 63.8867ZM200.293 64.8828L199.808 65.7574L199.815 65.761L200.293 64.8828ZM202.156 66.5469L201.324 67.1016L201.327 67.106L202.156 66.5469ZM196.062 74.2461V73.2461C194.093 73.2461 192.638 72.7961 191.596 71.9989L190.988 72.793L190.38 73.587C191.87 74.7273 193.798 75.2461 196.062 75.2461V74.2461ZM190.988 72.793L191.598 72.0007C190.624 71.2499 190.067 70.1316 190.019 68.4866L189.02 68.5156L188.02 68.5447C188.082 70.6653 188.837 72.3986 190.378 73.5852L190.988 72.793ZM189.02 68.5156V69.5156H192.594V68.5156V67.5156H189.02V68.5156ZM192.594 68.5156L191.596 68.5869C191.677 69.7117 192.14 70.6661 193.045 71.3105L193.625 70.4961L194.205 69.6817C193.86 69.4354 193.636 69.0696 193.591 68.4444L192.594 68.5156ZM193.625 70.4961L193.056 71.3187C193.894 71.8976 194.902 72.1523 196.016 72.1523V71.1523V70.1523C195.207 70.1523 194.622 69.9696 194.194 69.6735L193.625 70.4961ZM196.016 71.1523V72.1523C197.087 72.1523 198.061 71.9251 198.844 71.3707L198.266 70.5547L197.688 69.7387C197.345 69.9812 196.819 70.1523 196.016 70.1523V71.1523ZM198.266 70.5547L198.838 71.3744C199.649 70.8078 200.121 69.995 200.121 68.9961H199.121H198.121C198.121 69.2784 198.022 69.5047 197.693 69.7349L198.266 70.5547ZM199.121 68.9961H200.121C200.121 68.0482 199.67 67.2805 198.866 66.7932L198.348 67.6484L197.829 68.5036C198.057 68.6413 198.121 68.7721 198.121 68.9961H199.121ZM198.348 67.6484L198.875 66.799C198.23 66.3978 197.378 66.0934 196.376 65.8552L196.145 66.8281L195.913 67.801C196.818 68.016 197.435 68.2584 197.82 68.4979L198.348 67.6484ZM196.145 66.8281L196.383 65.8569L194.473 65.3882L194.234 66.3594L193.996 67.3306L195.906 67.7993L196.145 66.8281ZM194.234 66.3594L194.467 65.3868C193.111 65.0621 192.117 64.5643 191.422 63.94L190.754 64.6836L190.085 65.4272C191.094 66.3342 192.421 66.9535 194.002 67.3319L194.234 66.3594ZM190.754 64.6836L191.43 63.9464C190.82 63.3873 190.488 62.6378 190.488 61.5898H189.488H188.488C188.488 63.1201 189.001 64.433 190.078 65.4207L190.754 64.6836ZM189.488 61.5898H190.488C190.488 60.727 190.718 60.0142 191.154 59.41L190.344 58.8242L189.533 58.2384C188.829 59.2124 188.488 60.3433 188.488 61.5898H189.488ZM190.344 58.8242L191.157 59.4062C191.612 58.7702 192.245 58.2608 193.091 57.8877L192.688 56.9727L192.284 56.0577C191.146 56.5595 190.216 57.2845 189.531 58.2422L190.344 58.8242ZM192.688 56.9727L193.094 57.8862C193.947 57.5064 194.942 57.3047 196.098 57.3047V56.3047V55.3047C194.707 55.3047 193.428 55.5482 192.281 56.0591L192.688 56.9727ZM196.098 56.3047V57.3047C197.281 57.3047 198.266 57.5077 199.078 57.8813L199.496 56.9727L199.914 56.0641C198.789 55.5469 197.508 55.3047 196.098 55.3047V56.3047ZM199.496 56.9727L199.078 57.8813C199.902 58.2598 200.507 58.7658 200.932 59.3883L201.758 58.8242L202.584 58.2601C201.931 57.3045 201.028 56.5761 199.914 56.0641L199.496 56.9727ZM201.758 58.8242L200.936 59.3939C201.361 60.0076 201.589 60.7215 201.602 61.5698L202.602 61.5547L203.601 61.5395C203.583 60.3254 203.248 59.219 202.58 58.2546L201.758 58.8242ZM202.602 61.5547V60.5547H199.039V61.5547V62.5547H202.602V61.5547ZM199.039 61.5547L200.035 61.4631C199.948 60.5204 199.528 59.722 198.768 59.158L198.172 59.9609L197.576 60.7638C197.847 60.9655 198.005 61.2296 198.043 61.6463L199.039 61.5547ZM198.172 59.9609L198.768 59.158C198.026 58.6071 197.093 58.3867 196.074 58.3867V59.3867V60.3867C196.821 60.3867 197.287 60.5492 197.576 60.7638L198.172 59.9609ZM196.074 59.3867V58.3867C195.054 58.3867 194.113 58.5974 193.388 59.1585L194 59.9492L194.612 60.7399C194.856 60.551 195.298 60.3867 196.074 60.3867V59.3867ZM194 59.9492L193.396 59.1523C192.681 59.6941 192.273 60.449 192.273 61.3555H193.273H194.273C194.273 61.1213 194.35 60.9387 194.604 60.7461L194 59.9492ZM193.273 61.3555H192.273C192.273 62.3323 192.735 63.1244 193.571 63.6214L194.082 62.7617L194.593 61.902C194.351 61.7584 194.273 61.613 194.273 61.3555H193.273ZM194.082 62.7617L193.58 63.6269C194.222 63.9988 194.966 64.2762 195.797 64.473L196.027 63.5L196.258 62.527C195.573 62.3645 195.02 62.1496 194.584 61.8966L194.082 62.7617ZM196.027 63.5L195.787 64.4706L197.345 64.8573L197.586 63.8867L197.827 62.9161L196.268 62.5294L196.027 63.5ZM197.586 63.8867L197.368 64.8627C198.304 65.0716 199.114 65.3728 199.808 65.7574L200.293 64.8828L200.778 64.0082C199.893 63.5178 198.899 63.155 197.804 62.9107L197.586 63.8867ZM200.293 64.8828L199.815 65.761C200.476 66.1211 200.97 66.5699 201.324 67.1016L202.156 66.5469L202.988 65.9922C202.436 65.1645 201.688 64.5039 200.771 64.0046L200.293 64.8828ZM202.156 66.5469L201.327 67.106C201.649 67.5827 201.836 68.1987 201.836 69.0078H202.836H203.836C203.836 67.8794 203.57 66.8548 202.985 65.9877L202.156 66.5469ZM202.836 69.0078H201.836C201.836 70.3217 201.364 71.299 200.423 72.0438L201.043 72.8281L201.663 73.6125C203.112 72.4666 203.836 70.8971 203.836 69.0078H202.836ZM201.043 72.8281L200.423 72.0438C199.462 72.8035 198.05 73.2461 196.062 73.2461V74.2461V75.2461C198.325 75.2461 200.233 74.7434 201.663 73.6125L201.043 72.8281ZM209 56.5391H210V55.5391H209V56.5391ZM209 74V75H210V74H209ZM205.32 74H204.32V75H205.32V74ZM205.32 56.5391V55.5391H204.32V56.5391H205.32ZM209 56.5391H208V74H209H210V56.5391H209ZM209 74V73H205.32V74V75H209V74ZM205.32 74H206.32V56.5391H205.32H204.32V74H205.32ZM205.32 56.5391V57.5391H209V56.5391V55.5391H205.32V56.5391ZM226.648 56.5391H227.648V55.5391H226.648V56.5391ZM226.648 74V75H227.648V74H226.648ZM223.449 74L222.626 74.5682L222.924 75H223.449V74ZM215.867 63.0195L216.69 62.4513L216.392 62.0195H215.867V63.0195ZM215.727 63.0195V62.0195H214.727V63.0195H215.727ZM215.727 74V75H216.727V74H215.727ZM212.047 74H211.047V75H212.047V74ZM212.047 56.5391V55.5391H211.047V56.5391H212.047ZM215.281 56.5391L216.106 55.9732L215.808 55.5391H215.281V56.5391ZM222.816 67.5195L221.992 68.0854L222.29 68.5195H222.816V67.5195ZM222.969 67.5195V68.5195H223.969V67.5195H222.969ZM222.969 56.5391V55.5391H221.969V56.5391H222.969ZM226.648 56.5391H225.648V74H226.648H227.648V56.5391H226.648ZM226.648 74V73H223.449V74V75H226.648V74ZM223.449 74L224.272 73.4318L216.69 62.4513L215.867 63.0195L215.044 63.5877L222.626 74.5682L223.449 74ZM215.867 63.0195V62.0195H215.727V63.0195V64.0195H215.867V63.0195ZM215.727 63.0195H214.727V74H215.727H216.727V63.0195H215.727ZM215.727 74V73H212.047V74V75H215.727V74ZM212.047 74H213.047V56.5391H212.047H211.047V74H212.047ZM212.047 56.5391V57.5391H215.281V56.5391V55.5391H212.047V56.5391ZM215.281 56.5391L214.457 57.1049L221.992 68.0854L222.816 67.5195L223.641 66.9537L216.106 55.9732L215.281 56.5391ZM222.816 67.5195V68.5195H222.969V67.5195V66.5195H222.816V67.5195ZM222.969 67.5195H223.969V56.5391H222.969H221.969V67.5195H222.969ZM222.969 56.5391V57.5391H226.648V56.5391V55.5391H222.969V56.5391ZM233.305 73.1562L232.797 74.0181L232.804 74.0218L233.305 73.1562ZM230.41 70.0625L229.52 70.518L229.523 70.5242L230.41 70.0625ZM230.457 60.4531L231.338 60.9269L231.339 60.9248L230.457 60.4531ZM241.121 57.0547L240.695 57.9595L240.698 57.9607L241.121 57.0547ZM243.746 59.1289L242.954 59.739L242.957 59.7433L243.746 59.1289ZM245.012 62.1875V63.1875H246.156L246.003 62.0536L245.012 62.1875ZM241.273 62.1875L240.314 62.4707L240.526 63.1875H241.273V62.1875ZM239.973 60.2656L239.373 61.0657L239.379 61.0704L239.973 60.2656ZM234.359 61.0508L235.125 61.6945L235.127 61.6916L234.359 61.0508ZM234.336 69.4883L233.56 70.1189L233.565 70.1255L234.336 69.4883ZM240.523 70.0273L241.197 70.7669L241.197 70.7665L240.523 70.0273ZM241.613 67.4375L242.613 67.4591L242.635 66.4375H241.613V67.4375ZM237.875 67.4375H236.875V68.4375H237.875V67.4375ZM237.875 64.6602V63.6602H236.875V64.6602H237.875ZM245.188 64.6602H246.188V63.6602H245.188V64.6602ZM241.531 73.3555L241.988 74.245L241.993 74.2425L241.531 73.3555ZM237.617 74.2344V73.2344C236.136 73.2344 234.875 72.9098 233.806 72.2907L233.305 73.1562L232.804 74.0218C234.218 74.8402 235.833 75.2344 237.617 75.2344V74.2344ZM233.305 73.1562L233.812 72.2945C232.748 71.668 231.911 70.7794 231.297 69.6008L230.41 70.0625L229.523 70.5242C230.3 72.0175 231.393 73.1914 232.797 74.018L233.305 73.1562ZM230.41 70.0625L231.3 69.607C230.699 68.4316 230.379 67.0044 230.379 65.293H229.379H228.379C228.379 67.2535 228.746 69.0059 229.52 70.518L230.41 70.0625ZM229.379 65.293H230.379C230.379 63.5277 230.714 62.0856 231.338 60.9269L230.457 60.4531L229.576 59.9793C228.762 61.4925 228.379 63.277 228.379 65.293H229.379ZM230.457 60.4531L231.339 60.9248C231.976 59.7338 232.825 58.8487 233.886 58.2376L233.387 57.3711L232.888 56.5045C231.48 57.3153 230.376 58.4849 229.575 59.9815L230.457 60.4531ZM233.387 57.3711L233.886 58.2376C234.956 57.6211 236.168 57.3047 237.547 57.3047V56.3047V55.3047C235.847 55.3047 234.286 55.6992 232.888 56.5045L233.387 57.3711ZM237.547 56.3047V57.3047C238.738 57.3047 239.782 57.5296 240.695 57.9595L241.121 57.0547L241.547 56.1499C240.335 55.5798 238.996 55.3047 237.547 55.3047V56.3047ZM241.121 57.0547L240.698 57.9607C241.632 58.3972 242.378 58.9905 242.954 59.739L243.746 59.1289L244.538 58.5189C243.755 57.5016 242.751 56.7122 241.544 56.1487L241.121 57.0547ZM243.746 59.1289L242.957 59.7433C243.531 60.4806 243.887 61.3326 244.021 62.3214L245.012 62.1875L246.003 62.0536C245.824 60.7299 245.336 59.5429 244.535 58.5145L243.746 59.1289ZM245.012 62.1875V61.1875H241.273V62.1875V63.1875H245.012V62.1875ZM241.273 62.1875L242.233 61.9043C241.935 60.8973 241.385 60.0644 240.566 59.4608L239.973 60.2656L239.379 61.0704C239.811 61.3888 240.127 61.837 240.314 62.4707L241.273 62.1875ZM239.973 60.2656L240.573 59.4656C239.739 58.8406 238.726 58.5625 237.605 58.5625V59.5625V60.5625C238.391 60.5625 238.956 60.7532 239.373 61.0656L239.973 60.2656ZM237.605 59.5625V58.5625C235.985 58.5625 234.617 59.1815 233.592 60.41L234.359 61.0508L235.127 61.6916C235.758 60.9357 236.555 60.5625 237.605 60.5625V59.5625ZM234.359 61.0508L233.594 60.407C232.562 61.6337 232.117 63.2984 232.117 65.2578H233.117H234.117C234.117 63.5766 234.5 62.4366 235.125 61.6945L234.359 61.0508ZM233.117 65.2578H232.117C232.117 67.2147 232.553 68.8797 233.56 70.1189L234.336 69.4883L235.112 68.8577C234.494 68.0968 234.117 66.9416 234.117 65.2578H233.117ZM234.336 69.4883L233.565 70.1255C234.592 71.3677 235.991 71.9766 237.652 71.9766V70.9766V69.9766C236.533 69.9766 235.72 69.5933 235.107 68.8511L234.336 69.4883ZM237.652 70.9766V71.9766C239.044 71.9766 240.268 71.6122 241.197 70.7669L240.523 70.0273L239.85 69.2878C239.388 69.7081 238.698 69.9766 237.652 69.9766V70.9766ZM240.523 70.0273L241.197 70.7665C242.132 69.9146 242.585 68.7762 242.613 67.4591L241.613 67.4375L240.614 67.4159C240.595 68.2706 240.321 68.8588 239.85 69.2881L240.523 70.0273ZM241.613 67.4375V66.4375H237.875V67.4375V68.4375H241.613V67.4375ZM237.875 67.4375H238.875V64.6602H237.875H236.875V67.4375H237.875ZM237.875 64.6602V65.6602H245.188V64.6602V63.6602H237.875V64.6602ZM245.188 64.6602H244.188V66.8633H245.188H246.188V64.6602H245.188ZM245.188 66.8633H244.188C244.188 68.2516 243.895 69.3853 243.353 70.3052L244.215 70.8125L245.077 71.3198C245.832 70.0366 246.188 68.5375 246.188 66.8633H245.188ZM244.215 70.8125L243.353 70.3052C242.8 71.2442 242.045 71.9607 241.07 72.4685L241.531 73.3555L241.993 74.2425C243.299 73.5627 244.332 72.584 245.077 71.3198L244.215 70.8125ZM241.531 73.3555L241.074 72.466C240.094 72.9694 238.95 73.2344 237.617 73.2344V74.2344V75.2344C239.222 75.2344 240.687 74.9134 241.988 74.245L241.531 73.3555Z" fill="#524B38" mask="url(#path-39-outside-2_86_76)"/>
</g>
<defs>
<filter id="filter0_d_86_76" x="48" y="26.9997" width="27.8285" height="47.0003" filterUnits="userSpaceOnUse" color-interpolation-filters="sRGB">
<feFlood flood-opacity="0" result="BackgroundImageFix"/>
<feColorMatrix in="SourceAlpha" type="matrix" values="0 0 0 0 0 0 0 0 0 0 0 0 0 0 0 0 0 0 127 0" result="hardAlpha"/>
<feOffset dy="4"/>
<feGaussianBlur stdDeviation="2"/>
<feComposite in2="hardAlpha" operator="out"/>
<feColorMatrix type="matrix" values="0 0 0 0 0 0 0 0 0 0 0 0 0 0 0 0 0 0 0.25 0"/>
<feBlend mode="normal" in2="BackgroundImageFix" result="effect1_dropShadow_86_76"/>
<feBlend mode="normal" in="SourceGraphic" in2="effect1_dropShadow_86_76" result="shape"/>
</filter>
<filter id="filter1_d_86_76" x="23.1721" y="26.9997" width="27.8285" height="47.0003" filterUnits="userSpaceOnUse" color-interpolation-filters="sRGB">
<feFlood flood-opacity="0" result="BackgroundImageFix"/>
<feColorMatrix in="SourceAlpha" type="matrix" values="0 0 0 0 0 0 0 0 0 0 0 0 0 0 0 0 0 0 127 0" result="hardAlpha"/>
<feOffset dy="4"/>
<feGaussianBlur stdDeviation="2"/>
<feComposite in2="hardAlpha" operator="out"/>
<feColorMatrix type="matrix" values="0 0 0 0 0 0 0 0 0 0 0 0 0 0 0 0 0 0 0.25 0"/>
<feBlend mode="normal" in2="BackgroundImageFix" result="effect1_dropShadow_86_76"/>
<feBlend mode="normal" in="SourceGraphic" in2="effect1_dropShadow_86_76" result="shape"/>
</filter>
<filter id="filter2_d_86_76" x="48" y="48" width="51.0005" height="52" filterUnits="userSpaceOnUse" color-interpolation-filters="sRGB">
<feFlood flood-opacity="0" result="BackgroundImageFix"/>
<feColorMatrix in="SourceAlpha" type="matrix" values="0 0 0 0 0 0 0 0 0 0 0 0 0 0 0 0 0 0 127 0" result="hardAlpha"/>
<feOffset dy="4"/>
<feGaussianBlur stdDeviation="2"/>
<feComposite in2="hardAlpha" operator="out"/>
<feColorMatrix type="matrix" values="0 0 0 0 0 0 0 0 0 0 0 0 0 0 0 0 0 0 0.25 0"/>
<feBlend mode="normal" in2="BackgroundImageFix" result="effect1_dropShadow_86_76"/>
<feBlend mode="normal" in="SourceGraphic" in2="effect1_dropShadow_86_76" result="shape"/>
</filter>
<filter id="filter3_d_86_76" x="0" y="48" width="51.0005" height="52" filterUnits="userSpaceOnUse" color-interpolation-filters="sRGB">
<feFlood flood-opacity="0" result="BackgroundImageFix"/>
<feColorMatrix in="SourceAlpha" type="matrix" values="0 0 0 0 0 0 0 0 0 0 0 0 0 0 0 0 0 0 127 0" result="hardAlpha"/>
<feOffset dy="4"/>
<feGaussianBlur stdDeviation="2"/>
<feComposite in2="hardAlpha" operator="out"/>
<feColorMatrix type="matrix" values="0 0 0 0 0 0 0 0 0 0 0 0 0 0 0 0 0 0 0.25 0"/>
<feBlend mode="normal" in2="BackgroundImageFix" result="effect1_dropShadow_86_76"/>
<feBlend mode="normal" in="SourceGraphic" in2="effect1_dropShadow_86_76" result="shape"/>
</filter>
<filter id="filter4_d_86_76" x="48" y="0" width="51.0005" height="52" filterUnits="userSpaceOnUse" color-interpolation-filters="sRGB">
<feFlood flood-opacity="0" result="BackgroundImageFix"/>
<feColorMatrix in="SourceAlpha" type="matrix" values="0 0 0 0 0 0 0 0 0 0 0 0 0 0 0 0 0 0 127 0" result="hardAlpha"/>
<feOffset dy="4"/>
<feGaussianBlur stdDeviation="2"/>
<feComposite in2="hardAlpha" operator="out"/>
<feColorMatrix type="matrix" values="0 0 0 0 0 0 0 0 0 0 0 0 0 0 0 0 0 0 0.25 0"/>
<feBlend mode="normal" in2="BackgroundImageFix" result="effect1_dropShadow_86_76"/>
<feBlend mode="normal" in="SourceGraphic" in2="effect1_dropShadow_86_76" result="shape"/>
</filter>
<filter id="filter5_d_86_76" x="0" y="0" width="51.0005" height="52" filterUnits="userSpaceOnUse" color-interpolation-filters="sRGB">
<feFlood flood-opacity="0" result="BackgroundImageFix"/>
<feColorMatrix in="SourceAlpha" type="matrix" values="0 0 0 0 0 0 0 0 0 0 0 0 0 0 0 0 0 0 127 0" result="hardAlpha"/>
<feOffset dy="4"/>
<feGaussianBlur stdDeviation="2"/>
<feComposite in2="hardAlpha" operator="out"/>
<feColorMatrix type="matrix" values="0 0 0 0 0 0 0 0 0 0 0 0 0 0 0 0 0 0 0.25 0"/>
<feBlend mode="normal" in2="BackgroundImageFix" result="effect1_dropShadow_86_76"/>
<feBlend mode="normal" in="SourceGraphic" in2="effect1_dropShadow_86_76" result="shape"/>
</filter>
<filter id="filter6_d_86_76" x="120.523" y="21.3047" width="167.758" height="27.9297" filterUnits="userSpaceOnUse" color-interpolation-filters="sRGB">
<feFlood flood-opacity="0" result="BackgroundImageFix"/>
<feColorMatrix in="SourceAlpha" type="matrix" values="0 0 0 0 0 0 0 0 0 0 0 0 0 0 0 0 0 0 127 0" result="hardAlpha"/>
<feOffset dy="2"/>
<feGaussianBlur stdDeviation="2"/>
<feComposite in2="hardAlpha" operator="out"/>
<feColorMatrix type="matrix" values="0 0 0 0 0 0 0 0 0 0 0 0 0 0 0 0 0 0 0.25 0"/>
<feBlend mode="normal" in2="BackgroundImageFix" result="effect1_dropShadow_86_76"/>
<feBlend mode="normal" in="SourceGraphic" in2="effect1_dropShadow_86_76" result="shape"/>
</filter>
<filter id="filter7_d_86_76" x="162.094" y="53.3047" width="88.0938" height="27.9414" filterUnits="userSpaceOnUse" color-interpolation-filters="sRGB">
<feFlood flood-opacity="0" result="BackgroundImageFix"/>
<feColorMatrix in="SourceAlpha" type="matrix" values="0 0 0 0 0 0 0 0 0 0 0 0 0 0 0 0 0 0 127 0" result="hardAlpha"/>
<feOffset dy="2"/>
<feGaussianBlur stdDeviation="2"/>
<feComposite in2="hardAlpha" operator="out"/>
<feColorMatrix type="matrix" values="0 0 0 0 0 0 0 0 0 0 0 0 0 0 0 0 0 0 0.25 0"/>
<feBlend mode="normal" in2="BackgroundImageFix" result="effect1_dropShadow_86_76"/>
<feBlend mode="normal" in="SourceGraphic" in2="effect1_dropShadow_86_76" result="shape"/>
</filter>
</defs>
</svg>
